HIERARCHY
ROOT root
{
	OFFSET 0.0000 0.0000 0.0000
	CHANNELS 6 Xposition Yposition Zposition Zrotation Xrotation Yrotation
	JOINT rfemur
	{
		OFFSET -8.5590 -9.8555 2.1513
		CHANNELS 3 Zrotation Xrotation Yrotation
		JOINT rtibia
		{
			OFFSET -7.2751 -41.2593 0.0000
			CHANNELS 3 Zrotation Xrotation Yrotation
			JOINT rfoot
			{
				OFFSET -6.5686 -37.2525 -0.0000
				CHANNELS 3 Zrotation Xrotation Yrotation
				JOINT rtoes
				{
					OFFSET 3.2326 -4.1860 10.4122
					CHANNELS 3 Zrotation Xrotation Yrotation
					End Site
					{
						OFFSET 0.0000 0.0000 0.0000
					}
				}
			}
		}
	}
	JOINT lfemur
	{
		OFFSET 8.5590 -9.8555 2.1513
		CHANNELS 3 Zrotation Xrotation Yrotation
		JOINT ltibia
		{
			OFFSET 7.2751 -41.2593 0.0000
			CHANNELS 3 Zrotation Xrotation Yrotation
			JOINT lfoot
			{
				OFFSET 6.5686 -37.2525 -0.0000
				CHANNELS 3 Zrotation Xrotation Yrotation
				JOINT ltoes
				{
					OFFSET 3.2326 -4.1860 10.4122
					CHANNELS 3 Zrotation Xrotation Yrotation
					End Site
					{
						OFFSET -0.0000 -0.0000 0.0000
					}
				}
			}
		}
	}
}
MOTION
Frames: 16
Frame Time: 0.008333
-159.4884 94.9058 -200.7184 -4.8000 7.9700 33.6800 3.0200 3.3400 -16.6000 1.0100 24.5600 -4.6200 -2.2000 7.8800 19.3900 0.0000 -0.0000 0.0000 -6.4900 -41.2300 12.4000 -2.0800 33.9400 6.8100 0.0000 -0.0000 0.0000 0.0000 -0.0000 0.0000 
-158.7444 94.9996 -199.9552 -4.4600 7.9800 33.6100 2.3400 1.9900 -15.1100 1.3500 28.0300 -5.3900 -2.4300 8.8500 18.1800 0.0000 0.0000 0.0000 -6.9800 -40.6800 11.8400 -2.1900 34.6900 7.0100 0.0000 0.0000 0.0000 0.0000 0.0000 0.0000 
-157.9913 95.1225 -199.2295 -4.0500 7.9000 33.6400 1.6000 0.4100 -13.9400 1.8000 31.8500 -6.2900 -2.7700 10.3100 16.9700 0.0000 -0.0000 0.0000 -5.6800 -40.2200 16.2900 -2.2200 34.9000 7.0600 0.0000 0.0000 0.0000 0.0000 0.0000 0.0000 
-157.2877 95.2503 -198.4807 -3.7200 7.8400 33.5500 1.0400 -1.3900 -12.5500 2.3600 35.8100 -7.3100 -3.2200 12.5300 15.3700 0.0000 0.1800 -0.0300 -8.1300 -38.9500 10.9100 -2.2300 34.9500 7.0800 0.0000 0.0000 0.0000 0.0000 0.0000 0.0000 
-156.6339 95.3907 -197.7558 -3.3700 7.7100 33.3800 0.6400 -3.0800 -11.2600 2.9800 39.3700 -8.3200 -3.6700 15.0900 13.9200 0.0000 0.1400 -0.0200 -8.7700 -37.9100 9.9400 -2.2500 35.0900 7.1200 0.0000 0.0000 0.0000 0.0000 0.0000 0.0000 
-155.9966 95.5086 -197.0331 -3.2200 7.7200 33.0800 0.5000 -5.1200 -9.6800 3.7200 42.9400 -9.4400 -4.0600 17.9400 12.4000 0.0000 0.0900 -0.0200 -8.7400 -37.1800 10.5100 -2.2500 35.1000 7.1200 0.0000 0.0000 0.0000 0.0000 0.0000 0.0000 
-155.3327 95.6285 -196.3260 -3.0200 7.7300 32.8600 0.3600 -7.1400 -8.3000 4.5800 46.3900 -10.6600 -4.3800 21.0600 10.8900 0.0000 -0.1500 0.0300 -8.7800 -36.3400 11.1000 -2.2400 35.0400 7.1000 0.0000 0.0000 0.0000 0.0000 0.0000 0.0000 
-154.6624 95.7290 -195.6331 -2.7800 7.8800 32.7300 -0.0300 -9.3400 -7.4000 5.5900 49.7400 -12.0200 -4.6800 24.2600 9.6700 0.0000 -0.4700 0.0800 -8.9700 -35.6700 11.6700 -2.2300 34.9500 7.0800 0.0000 0.0000 0.0000 0.0000 0.0000 0.0000 
-153.9949 95.8507 -194.9412 -2.4200 7.9500 32.4200 -0.5400 -11.4300 -6.6500 6.7200 52.8700 -13.4700 -4.8400 27.2400 8.4700 0.0000 -0.8400 0.1500 -9.4300 -34.6600 11.6300 -2.2000 34.7800 7.0300 0.0000 0.0000 0.0000 0.0000 0.0000 0.0000 
-153.3459 95.9508 -194.2450 -2.1600 7.8700 32.2800 -0.9000 -13.3900 -6.2700 7.9400 55.6800 -14.9700 -4.7900 29.5700 7.3300 0.0000 -1.0900 0.1900 -9.4300 -33.6500 12.3500 -2.1600 34.5100 6.9600 0.0000 0.0000 0.0000 0.0000 0.0000 0.0000 
-152.6868 96.0620 -193.5716 -1.9500 8.0900 32.3000 -1.4100 -15.6200 -6.0500 9.2800 58.2600 -16.5600 -4.5200 30.9800 6.2200 0.0000 -1.1200 0.2000 -9.5100 -32.9500 13.4800 -2.1100 34.1300 6.8600 0.0000 0.0000 0.0000 0.0000 0.0000 0.0000 
-152.0401 96.2271 -192.8998 -1.7000 8.3100 32.1800 -1.8200 -17.6800 -5.6500 10.6300 60.4800 -18.1400 -3.9200 31.3600 4.9000 0.0000 -0.9400 0.1700 -9.7500 -32.1300 14.2300 -2.0400 33.6700 6.7500 0.0000 0.0000 0.0000 0.0000 0.0000 0.0000 
-151.4081 96.4314 -192.2534 -1.5400 8.2300 32.1300 -1.9900 -19.2900 -5.4500 11.9600 62.3300 -19.6500 -3.3200 30.8700 3.8600 0.0000 -0.6200 0.1100 -9.8200 -31.0400 14.9300 -1.9600 33.1000 6.6000 0.0000 0.0000 0.0000 0.0000 0.0000 0.0000 
-150.7635 96.5972 -191.6250 -1.4800 8.1600 32.3600 -2.1800 -20.8100 -5.5900 13.2600 63.9200 -21.1100 -2.8500 29.9600 3.1500 0.0000 -0.3500 0.0600 -10.1700 -29.8600 14.7500 -1.8700 32.4100 6.4300 0.0000 0.0000 0.0000 0.0000 0.0000 0.0000 
-150.1110 96.7674 -190.9862 -1.4500 8.1300 32.5700 -2.1900 -22.2500 -5.4800 14.4400 65.1800 -22.4200 -2.4600 28.8900 2.6200 0.0000 -0.1600 0.0300 -10.4400 -28.7800 14.8900 -1.7700 31.6900 6.2500 0.0000 0.0000 0.0000 0.0000 0.0000 0.0000 
-149.4638 96.9592 -190.3402 -1.4900 7.9600 32.7500 -1.9500 -23.5100 -5.3000 15.4500 66.1700 -23.5300 -2.0400 27.9000 1.9700 0.0000 -0.1100 0.0200 -10.2700 -27.7000 15.9000 -1.6800 30.9100 6.0600 0.0000 0.0000 0.0000 0.0000 0.0000 0.0000 
